<svg width="25" height="25" viewBox="0 0 25 25" fill="none" xmlns="http://www.w3.org/2000/svg">
<path d="M21.1883 22.9945L24.345 19.7651C24.7307 19.3709 24.944 18.8465 24.938 18.2946C24.932 17.7426 24.7103 17.223 24.3132 16.8373L20.8414 13.4339C20.4473 13.0481 19.92 12.8349 19.3681 12.8408C18.8132 12.8469 18.2966 13.0685 17.908 13.4657L15.2467 16.1828C13.8135 15.586 12.5079 14.7203 11.4002 13.6324C10.2815 12.5435 9.39463 11.2661 8.76124 9.84493L11.4225 7.1279C11.8082 6.7337 12.0215 6.20936 12.0155 5.6574C12.0136 5.38514 11.9573 5.116 11.85 4.86577C11.7427 4.61553 11.5866 4.38923 11.3907 4.20012L7.91897 0.793685C7.5248 0.40795 6.99752 0.194668 6.44562 0.200663C5.89072 0.20669 5.37417 0.428311 4.98551 0.825549L1.82876 4.05198C1.17012 4.72516 0.799162 5.64723 0.809394 6.58916C0.811512 6.78414 0.828561 6.97297 0.863641 7.16459C1.56066 11.1292 3.71809 15.0479 6.93207 18.1962C10.152 21.3413 14.1162 23.4104 18.0977 24.0271C19.2275 24.2039 20.3842 23.8133 21.1883 22.9945V22.9945ZM18.4315 21.8964C14.8888 21.3499 11.3408 19.4863 8.44521 16.6527C5.54962 13.819 3.60968 10.3149 2.98637 6.78452C2.90656 6.34137 3.05158 5.88377 3.369 5.55631L6.46938 2.3875L9.83187 5.67512L6.27157 9.30795L6.24486 9.33524L6.49186 9.98058C7.23545 11.9374 8.3956 13.7091 9.8919 15.1728C11.3882 16.6366 13.1849 17.7575 15.1574 18.4578L15.8079 18.6908L19.3888 15.0277L22.7513 18.3153L19.651 21.4842C19.3305 21.8116 18.8762 21.9666 18.4315 21.8964Z" fill="black" fill-opacity="0.85"/>
</svg>
